<svg width="26" height="26" viewBox="0 0 26 26" fill="none" xmlns="http://www.w3.org/2000/svg">
<path d="M13.0058 6.33393C9.31597 6.33393 6.33973 9.31016 6.33973 13C6.33973 16.6898 9.31597 19.6661 13.0058 19.6661C16.6956 19.6661 19.6719 16.6898 19.6719 13C19.6719 9.31016 16.6956 6.33393 13.0058 6.33393ZM13.0058 17.3338C10.6213 17.3338 8.67198 15.3903 8.67198 13C8.67198 10.6097 10.6155 8.66618 13.0058 8.66618C15.3961 8.66618 17.3396 10.6097 17.3396 13C17.3396 15.3903 15.3903 17.3338 13.0058 17.3338ZM21.4994 6.06125C21.4994 6.92569 20.8032 7.61609 19.9446 7.61609C19.0801 7.61609 18.3897 6.91989 18.3897 6.06125C18.3897 5.20261 19.0859 4.50641 19.9446 4.50641C20.8032 4.50641 21.4994 5.20261 21.4994 6.06125ZM25.9144 7.6393C25.8158 5.55651 25.3401 3.71159 23.8142 2.19157C22.2942 0.671538 20.4493 0.195805 18.3665 0.0913756C16.2199 -0.0304586 9.7859 -0.0304586 7.6393 0.0913756C5.56231 0.190003 3.71739 0.665737 2.19157 2.18576C0.665737 3.70579 0.195805 5.55071 0.0913756 7.63349C-0.0304586 9.7801 -0.0304586 16.2141 0.0913756 18.3607C0.190003 20.4435 0.665737 22.2884 2.19157 23.8084C3.71739 25.3285 5.55651 25.8042 7.6393 25.9086C9.7859 26.0305 16.2199 26.0305 18.3665 25.9086C20.4493 25.81 22.2942 25.3343 23.8142 23.8084C25.3343 22.2884 25.81 20.4435 25.9144 18.3607C26.0363 16.2141 26.0363 9.7859 25.9144 7.6393ZM23.1412 20.664C22.6887 21.8011 21.8127 22.6771 20.6698 23.1354C18.9583 23.8142 14.8971 23.6576 13.0058 23.6576C11.1145 23.6576 7.04753 23.8084 5.34185 23.1354C4.20473 22.6829 3.32868 21.8069 2.87036 20.664C2.19157 18.9525 2.34821 14.8913 2.34821 13C2.34821 11.1087 2.19737 7.04173 2.87036 5.33605C3.32288 4.19893 4.19893 3.32288 5.34185 2.86455C7.05333 2.18576 11.1145 2.34241 13.0058 2.34241C14.8971 2.34241 18.9641 2.19157 20.6698 2.86455C21.8069 3.31708 22.6829 4.19313 23.1412 5.33605C23.82 7.04753 23.6634 11.1087 23.6634 13C23.6634 14.8913 23.82 18.9583 23.1412 20.664Z" fill="#222222"/>
</svg>
